<svg xmlns="http://www.w3.org/2000/svg" width="100" height="100" viewBox="0 0 100 100"><g transform="matrix(1 0 0 1 23 12)"><path d="M27 0 L27.754593 -1.852185 C27.270834 -2.049272 26.729166 -2.049272 26.245407 -1.852185 L27 0 Z M54 11 L56 11 C56 10.186834 55.50766 9.45462 54.754593 9.147816 L54 11 Z M27 74 L25.940002 75.695999 C26.588543 76.101334 27.411457 76.101334 28.059998 75.695999 L27 74 Z M0 11 L-0.754594 9.147816 C-1.507661 9.45462 -2 10.186834 -2 11 L0 11 Z M27 0 L26.245407 1.852185 L53.245407 12.852184 L54 11 L54.754593 9.147816 L27.754593 -1.852185 L27 0 Z M54 11 L52 11 L52 33 L54 33 L56 33 L56 11 L54 11 Z M54 33 L52 33 C52 49.037254 41.632103 62.496441 25.940002 72.304001 L27 74 L28.059998 75.695999 C44.367897 65.503563 56 50.962746 56 33 L54 33 Z M27 74 L28.059998 72.304001 C12.367896 62.496441 2 49.037254 2 33 L0 33 L-2 33 C-2 50.962746 9.632104 65.503563 25.940002 75.695999 L27 74 Z M0 33 L2 33 L2 11 L0 11 L-2 11 L-2 33 L0 33 Z M0 11 L0.754594 12.852184 L27.754593 1.852185 L27 0 L26.245407 -1.852185 L-0.754594 9.147816 L0 11 Z " fill="rgb(16 58 91)"/></g><g transform="matrix(1 0 0 1 35 35)"><path d="M-2 16 C-2 17.10457 -1.10457 18 0 18 C1.10457 18 2 17.10457 2 16 L0 16 L-2 16 Z M15 29 C13.895431 29 13 29.89543 13 31 C13 32.104568 13.895431 33 15 33 L15 31 L15 29 Z M0 16 L2 16 C2 7.929437 7.271923 2 15 2 L15 0 L15 -2 C4.728077 -2 -2 6.070563 -2 16 L0 16 Z M15 0 L15 2 C22.728077 2 28 7.929437 28 16 L30 16 L32 16 C32 6.070563 25.271923 -2 15 -2 L15 0 Z M30 16 L28 16 C28 20.045504 26.660229 23.261345 24.460787 25.460787 C22.261345 27.660229 19.045504 29 15 29 L15 31 L15 33 C19.954496 33 24.238655 31.339771 27.289213 28.289213 C30.339771 25.238655 32 20.954496 32 16 L30 16 Z " fill="rgb(20 184 196)"/></g><g transform="matrix(1 0 0 1 50 35)"><path d="M2 0 C2 -1.10457 1.10457 -2 0 -2 C-1.10457 -2 -2 -1.10457 -2 0 L0 0 L2 0 Z M-2 31 C-2 32.104568 -1.10457 33 0 33 C1.10457 33 2 32.104568 2 31 L0 31 L-2 31 Z M0 0 L-2 0 L-2 31 L0 31 L2 31 L2 0 L0 0 Z " fill="rgb(20 184 196)"/></g></svg>